<svg width="448" height="122" viewBox="0 0 448 122" fill="none" xmlns="http://www.w3.org/2000/svg">
<g clip-path="url(#clip0)">
<path d="M116.5 66.5C112.1 66.4 102 63.2 97 61.5C92 59.8 80.9991 47.5 77.7991 43.4C74.5991 39.3 44.3991 2.90002 42.1991 0.300024C41.5991 -0.599976 29.3991 0.600024 27.8991 0.800024C26.3991 1.00002 41.2991 68.5 41.2991 68.5C82.3991 65 116.5 66.5 116.5 66.5Z" fill="#223E71"/>
<path d="M430.401 79.1001C430.401 79.1001 417.301 67.9001 394.601 66.8001C375.601 65.8001 364.001 65.8001 349.601 65.7001L128.101 67.0001C126.001 67.0001 101.401 65.0001 81.2008 65.4001C67.8512 65.643 54.5278 66.6782 41.3009 68.5001C41.3009 68.5001 27.3008 72.4001 24.5008 73.0001C21.7008 73.6001 22.0009 75.8001 26.1009 77.6001C28.6009 78.8001 97.6008 106 138.701 106.2C179.801 106.4 394.401 106 407.201 105.3C420.001 104.6 436.601 98.4001 440.901 96.4001C445.201 94.4001 447.701 92.2001 447.701 90.2001C447.701 88.2001 444.701 83.6001 430.401 79.1001Z" fill="url(#paint0_linear)"/>
<path d="M67.3 73.7001C65.9218 74.4734 64.4401 75.0458 62.9 75.4001C59.5678 76.2708 56.1436 76.7408 52.7 76.8001C45.3 76.8001 37.8 76.3001 34.2 73.9001C30.6 71.5001 0 52.2001 0 52.2001L6.60004 51.8001C7.30004 51.7001 67.3 73.6001 67.3 73.7001Z" fill="#839894"/>
<path d="M67.5 74.0002C65.6754 74.6709 63.8036 75.2057 61.9 75.6002C54.9 69.1002 12.7 54.3002 10.9 53.7002C7.33795 52.7752 3.67953 52.2717 0 52.2002C0 52.2002 6.30002 51.7002 8.40002 51.7002C20.9 56.4002 58.4 68.6002 66.6 72.7002C66.8562 72.8116 67.0762 72.9923 67.2352 73.222C67.3942 73.4517 67.4859 73.7212 67.5 74.0002Z" fill="#6E807D"/>
<path d="M107.994 78.4223C107.991 77.7596 107.451 77.2251 106.788 77.2286C106.125 77.2321 105.591 77.7721 105.594 78.4349L105.6 79.5848C105.604 80.2476 106.144 80.782 106.806 80.7785C107.469 80.775 108.004 80.235 108 79.5723L107.994 78.4223Z" fill="#252827"/>
<path d="M113.094 78.4955C113.09 77.8328 112.55 77.2984 111.887 77.3018C111.225 77.3053 110.69 77.8454 110.694 78.5081L110.7 79.6581C110.703 80.3208 111.243 80.8552 111.906 80.8518C112.569 80.8483 113.103 80.3082 113.1 79.6455L113.094 78.4955Z" fill="#252827"/>
<path d="M118.193 78.3691C118.19 77.7063 117.65 77.1719 116.987 77.1754C116.324 77.1788 115.79 77.7189 115.793 78.3816L115.799 79.5316C115.803 80.1943 116.343 80.7288 117.006 80.7253C117.668 80.7219 118.203 80.1818 118.199 79.519L118.193 78.3691Z" fill="#252827"/>
<path d="M123.293 78.3422C123.29 77.6795 122.749 77.145 122.087 77.1485C121.424 77.152 120.89 77.692 120.893 78.3548L120.899 79.5048C120.902 80.1675 121.443 80.7019 122.105 80.6985C122.768 80.695 123.302 80.1549 123.299 79.4922L123.293 78.3422Z" fill="#252827"/>
<path d="M128.393 78.3154C128.389 77.6526 127.849 77.1182 127.186 77.1216C126.524 77.1251 125.989 77.6652 125.993 78.3279L125.999 79.4779C126.002 80.1406 126.542 80.6751 127.205 80.6716C127.868 80.6681 128.402 80.1281 128.399 79.4653L128.393 78.3154Z" fill="#252827"/>
<path d="M133.492 78.3886C133.489 77.7259 132.949 77.1914 132.286 77.1949C131.623 77.1984 131.089 77.7384 131.092 78.4012L131.098 79.5511C131.102 80.2139 131.642 80.7483 132.305 80.7449C132.967 80.7414 133.502 80.2013 133.498 79.5386L133.492 78.3886Z" fill="#252827"/>
<path d="M138.592 78.2621C138.588 77.5994 138.048 77.065 137.386 77.0684C136.723 77.0719 136.188 77.612 136.192 78.2747L136.198 79.4247C136.201 80.0874 136.741 80.6219 137.404 80.6184C138.067 80.6149 138.601 80.0748 138.598 79.4121L138.592 78.2621Z" fill="#252827"/>
<path d="M143.691 78.2353C143.688 77.5725 143.148 77.0381 142.485 77.0416C141.822 77.045 141.288 77.5851 141.291 78.2478L141.297 79.3978C141.301 80.0606 141.841 80.595 142.504 80.5915C143.166 80.5881 143.701 80.048 143.697 79.3853L143.691 78.2353Z" fill="#252827"/>
<path d="M148.793 78.3085C148.79 77.6458 148.249 77.1113 147.587 77.1148C146.924 77.1183 146.39 77.6584 146.393 78.3211L146.399 79.4711C146.402 80.1338 146.943 80.6683 147.605 80.6648C148.268 80.6613 148.802 80.1212 148.799 79.4585L148.793 78.3085Z" fill="#252827"/>
<path d="M153.891 78.182C153.887 77.5193 153.347 76.9849 152.684 76.9883C152.022 76.9918 151.487 77.5319 151.491 78.1946L151.497 79.3446C151.5 80.0073 152.04 80.5418 152.703 80.5383C153.366 80.5348 153.9 79.9947 153.897 79.332L153.891 78.182Z" fill="#252827"/>
<path d="M158.992 78.1552C158.989 77.4924 158.449 76.958 157.786 76.9615C157.123 76.965 156.589 77.505 156.592 78.1677L156.598 79.3177C156.602 79.9804 157.142 80.5149 157.805 80.5114C158.467 80.508 159.002 79.9679 158.998 79.3052L158.992 78.1552Z" fill="#252827"/>
<path d="M164.092 78.1283C164.088 77.4656 163.548 76.9312 162.886 76.9346C162.223 76.9381 161.688 77.4782 161.692 78.1409L161.698 79.2909C161.701 79.9536 162.241 80.488 162.904 80.4846C163.567 80.4811 164.101 79.941 164.098 79.2783L164.092 78.1283Z" fill="#252827"/>
<path d="M336.084 77.3281C336.081 76.6653 335.54 76.1309 334.878 76.1343C334.215 76.1378 333.681 76.6779 333.684 77.3406L333.69 78.4906C333.694 79.1533 334.234 79.6878 334.896 79.6843C335.559 79.6808 336.094 79.1408 336.09 78.478L336.084 77.3281Z" fill="#252827"/>
<path d="M341.184 77.2011C341.18 76.5383 340.64 76.0039 339.977 76.0074C339.315 76.0109 338.78 76.5509 338.784 77.2136L338.79 78.3636C338.793 79.0263 339.333 79.5608 339.996 79.5573C340.659 79.5539 341.193 79.0138 341.19 78.351L341.184 77.2011Z" fill="#252827"/>
<path d="M346.283 77.1747C346.28 76.512 345.74 75.9776 345.077 75.981C344.414 75.9845 343.88 76.5245 343.883 77.1873L343.889 78.3372C343.893 79 344.433 79.5344 345.096 79.531C345.758 79.5275 346.293 78.9874 346.289 78.3247L346.283 77.1747Z" fill="#252827"/>
<path d="M351.383 77.2479C351.379 76.5852 350.839 76.0508 350.177 76.0543C349.514 76.0577 348.979 76.5978 348.983 77.2605L348.989 78.4105C348.992 79.0732 349.532 79.6077 350.195 79.6042C350.858 79.6007 351.392 79.0607 351.389 78.3979L351.383 77.2479Z" fill="#252827"/>
<path d="M356.482 77.121C356.479 76.4583 355.939 75.9238 355.276 75.9273C354.613 75.9308 354.079 76.4708 354.082 77.1336L354.088 78.2836C354.092 78.9463 354.632 79.4807 355.295 79.4772C355.957 79.4738 356.492 78.9337 356.488 78.271L356.482 77.121Z" fill="#252827"/>
<path d="M361.582 77.0946C361.579 76.4319 361.039 75.8975 360.376 75.9009C359.713 75.9044 359.179 76.4445 359.182 77.1072L359.188 78.2572C359.192 78.9199 359.732 79.4544 360.394 79.4509C361.057 79.4474 361.592 78.9074 361.588 78.2446L361.582 77.0946Z" fill="#252827"/>
<path d="M366.684 77.0678C366.68 76.405 366.14 75.8706 365.477 75.8741C364.815 75.8776 364.28 76.4176 364.284 77.0803L364.29 78.2303C364.293 78.8931 364.833 79.4275 365.496 79.424C366.159 79.4206 366.693 78.8805 366.69 78.2178L366.684 77.0678Z" fill="#252827"/>
<path d="M371.783 77.141C371.78 76.4783 371.24 75.9439 370.577 75.9473C369.914 75.9508 369.38 76.4908 369.383 77.1536L369.389 78.3036C369.393 78.9663 369.933 79.5007 370.596 79.4973C371.258 79.4938 371.793 78.9538 371.789 78.291L371.783 77.141Z" fill="#252827"/>
<path d="M376.883 77.0146C376.879 76.3518 376.339 75.8174 375.677 75.8209C375.014 75.8243 374.479 76.3644 374.483 77.0271L374.489 78.1771C374.492 78.8399 375.032 79.3743 375.695 79.3708C376.358 79.3673 376.892 78.8273 376.889 78.1646L376.883 77.0146Z" fill="#252827"/>
<path d="M381.982 76.9877C381.979 76.325 381.439 75.7905 380.776 75.794C380.113 75.7975 379.579 76.3376 379.582 77.0003L379.588 78.1503C379.592 78.813 380.132 79.3474 380.795 79.3439C381.457 79.3405 381.992 78.8004 381.988 78.1377L381.982 76.9877Z" fill="#252827"/>
<path d="M387.082 76.9609C387.079 76.2981 386.539 75.7637 385.876 75.7672C385.213 75.7706 384.679 76.3107 384.682 76.9734L384.688 78.1234C384.692 78.7861 385.232 79.3206 385.894 79.3171C386.557 79.3136 387.092 78.7736 387.088 78.1108L387.082 76.9609Z" fill="#252827"/>
<path d="M392.281 76.9335C392.278 76.2708 391.738 75.7363 391.075 75.7398C390.412 75.7433 389.878 76.2834 389.881 76.9461L389.887 78.0961C389.891 78.7588 390.431 79.2933 391.094 79.2898C391.756 79.2863 392.291 78.7462 392.287 78.0835L392.281 76.9335Z" fill="#252827"/>
<path d="M285.086 77.495C285.082 76.8323 284.542 76.2979 283.88 76.3013C283.217 76.3048 282.683 76.8449 282.686 77.5076L282.692 78.6576C282.695 79.3203 283.236 79.8547 283.898 79.8513C284.561 79.8478 285.095 79.3078 285.092 78.645L285.086 77.495Z" fill="#252827"/>
<path d="M290.186 77.4682C290.182 76.8055 289.642 76.271 288.979 76.2745C288.316 76.2779 287.782 76.818 287.786 77.4808L287.792 78.6307C287.795 79.2935 288.335 79.8279 288.998 79.8244C289.661 79.8209 290.195 79.2809 290.192 78.6182L290.186 77.4682Z" fill="#252827"/>
<path d="M295.285 77.4418C295.282 76.7791 294.742 76.2446 294.079 76.2481C293.416 76.2516 292.882 76.7917 292.885 77.4544L292.891 78.6044C292.895 79.2671 293.435 79.8015 294.097 79.7981C294.76 79.7946 295.295 79.2545 295.291 78.5918L295.285 77.4418Z" fill="#252827"/>
<path d="M300.385 77.415C300.381 76.7522 299.841 76.2178 299.179 76.2213C298.516 76.2247 297.981 76.7648 297.985 77.4275L297.991 78.5775C297.994 79.2402 298.534 79.7747 299.197 79.7712C299.86 79.7678 300.394 79.2277 300.391 78.5649L300.385 77.415Z" fill="#252827"/>
<path d="M260.187 77.7255C260.184 77.0628 259.644 76.5283 258.981 76.5318C258.318 76.5353 257.784 77.0753 257.788 77.7381L257.794 78.888C257.797 79.5508 258.337 80.0852 259 80.0817C259.663 80.0783 260.197 79.5382 260.193 78.8755L260.187 77.7255Z" fill="#252827"/>
<path d="M250.088 77.6781C250.084 77.0154 249.544 76.481 248.882 76.4844C248.219 76.4879 247.684 77.028 247.688 77.6907L247.694 78.8407C247.697 79.5034 248.237 80.0378 248.9 80.0344C249.563 80.0309 250.097 79.4908 250.094 78.8281L250.088 77.6781Z" fill="#252827"/>
<path d="M265.287 77.5985C265.284 76.9358 264.744 76.4014 264.081 76.4048C263.418 76.4083 262.884 76.9484 262.887 77.6111L262.893 78.7611C262.897 79.4238 263.437 79.9583 264.099 79.9548C264.762 79.9513 265.297 79.4113 265.293 78.7485L265.287 77.5985Z" fill="#252827"/>
<path d="M270.387 77.5722C270.383 76.9094 269.843 76.375 269.18 76.3785C268.518 76.382 267.983 76.922 267.987 77.5847L267.993 78.7347C267.996 79.3975 268.536 79.9319 269.199 79.9284C269.862 79.925 270.396 79.3849 270.393 78.7222L270.387 77.5722Z" fill="#252827"/>
<path d="M275.486 77.5453C275.483 76.8826 274.943 76.3482 274.28 76.3516C273.617 76.3551 273.083 76.8951 273.086 77.5579L273.092 78.7079C273.096 79.3706 273.636 79.905 274.299 79.9016C274.961 79.8981 275.496 79.3581 275.492 78.6953L275.486 77.5453Z" fill="#252827"/>
<path d="M305.484 77.3881C305.481 76.7254 304.941 76.1909 304.278 76.1944C303.615 76.1979 303.081 76.7379 303.084 77.4007L303.09 78.5507C303.094 79.2134 303.634 79.7478 304.297 79.7444C304.959 79.7409 305.494 79.2008 305.49 78.5381L305.484 77.3881Z" fill="#252827"/>
<path d="M310.586 77.3613C310.582 76.6985 310.042 76.1641 309.38 76.1675C308.717 76.171 308.183 76.7111 308.186 77.3738L308.192 78.5238C308.195 79.1865 308.736 79.721 309.398 79.7175C310.061 79.714 310.595 79.174 310.592 78.5112L310.586 77.3613Z" fill="#252827"/>
<path d="M315.686 77.435C315.682 76.7723 315.142 76.2378 314.479 76.2413C313.816 76.2447 313.282 76.7848 313.286 77.4476L313.292 78.5975C313.295 79.2603 313.835 79.7947 314.498 79.7912C315.161 79.7878 315.695 79.2477 315.692 78.585L315.686 77.435Z" fill="#252827"/>
<path d="M291 98C292.787 98 295 100.208 295 101.737V116.347C295 117.876 292.787 120 291 120V98Z" fill="#F5B53F"/>
<path d="M291 98C292.787 98 295 100.208 295 101.737V116.347C295 117.876 292.787 120 291 120V98Z" fill="url(#paint1_linear)"/>
<path d="M260 98.8462C260 98.8462 264.705 98 267.75 98C276.792 98 291 98 291 98V120H272.93C269.487 120 266.053 119.63 262.69 118.895L260 118.308V98.8462Z" fill="#B2752C"/>
<path d="M260 98.8462C260 98.8462 264.705 98 267.75 98C276.792 98 291 98 291 98V120H272.93C269.487 120 266.053 119.63 262.69 118.895L260 118.308V98.8462Z" fill="url(#paint2_linear)"/>
<path d="M253 106.667C253 105.473 253.533 104.343 254.452 103.583L260 99V118L254.688 114.239C253.629 113.489 253 112.272 253 110.975V106.667Z" fill="#A09E9E"/>
<path d="M320.785 77.308C320.782 76.6453 320.242 76.1109 319.579 76.1143C318.916 76.1178 318.382 76.6579 318.385 77.3206L318.391 78.4706C318.395 79.1333 318.935 79.6678 319.597 79.6643C320.26 79.6608 320.795 79.1207 320.791 78.458L320.785 77.308Z" fill="#252827"/>
<path d="M325.885 77.2812C325.881 76.6184 325.341 76.084 324.679 76.0875C324.016 76.0909 323.481 76.631 323.485 77.2937L323.491 78.4437C323.494 79.1065 324.034 79.6409 324.697 79.6374C325.36 79.634 325.894 79.0939 325.891 78.4312L325.885 77.2812Z" fill="#252827"/>
<path d="M330.984 77.2548C330.981 76.5921 330.441 76.0576 329.778 76.0611C329.115 76.0646 328.581 76.6046 328.584 77.2674L328.59 78.4174C328.594 79.0801 329.134 79.6145 329.797 79.6111C330.459 79.6076 330.994 79.0675 330.99 78.4048L330.984 77.2548Z" fill="#252827"/>
<path d="M182.291 78.0331C182.288 77.3704 181.747 76.8359 181.085 76.8394C180.422 76.8429 179.888 77.3829 179.891 78.0457L179.897 79.1957C179.901 79.8584 180.441 80.3928 181.103 80.3894C181.766 80.3859 182.301 79.8458 182.297 79.1831L182.291 78.0331Z" fill="#252827"/>
<path d="M187.391 78.1063C187.387 77.4436 186.847 76.9092 186.184 76.9127C185.522 76.9161 184.987 77.4562 184.991 78.1189L184.997 79.2689C185 79.9317 185.54 80.4661 186.203 80.4626C186.866 80.4591 187.4 79.9191 187.397 79.2564L187.391 78.1063Z" fill="#252827"/>
<path d="M192.49 77.9799C192.487 77.3172 191.947 76.7827 191.284 76.7862C190.621 76.7897 190.087 77.3297 190.09 77.9925L190.096 79.1425C190.1 79.8052 190.64 80.3396 191.303 80.3361C191.965 80.3327 192.5 79.7926 192.496 79.1299L192.49 77.9799Z" fill="#252827"/>
<path d="M197.59 77.9531C197.586 77.2903 197.046 76.7559 196.384 76.7593C195.721 76.7628 195.186 77.3029 195.19 77.9656L195.196 79.1156C195.199 79.7783 195.739 80.3128 196.402 80.3093C197.065 80.3058 197.599 79.7658 197.596 79.103L197.59 77.9531Z" fill="#252827"/>
<path d="M202.689 77.9262C202.686 77.2635 202.146 76.729 201.483 76.7325C200.82 76.736 200.286 77.276 200.289 77.9388L200.296 79.0887C200.299 79.7515 200.839 80.2859 201.502 80.2824C202.164 80.279 202.699 79.7389 202.695 79.0762L202.689 77.9262Z" fill="#252827"/>
<path d="M207.789 77.9999C207.786 77.3372 207.246 76.8027 206.583 76.8062C205.92 76.8097 205.386 77.3498 205.389 78.0125L205.395 79.1625C205.399 79.8252 205.939 80.3596 206.601 80.3562C207.264 80.3527 207.799 79.8126 207.795 79.1499L207.789 77.9999Z" fill="#252827"/>
<path d="M172.691 78.0834C172.688 77.4207 172.148 76.8862 171.485 76.8897C170.822 76.8932 170.288 77.4332 170.291 78.096L170.297 79.246C170.301 79.9087 170.841 80.4431 171.504 80.4397C172.166 80.4362 172.701 79.8961 172.697 79.2334L172.691 78.0834Z" fill="#252827"/>
<path d="M84.7002 97.1002C103.2 102.1 123 106.1 138.7 106.2C179.7 106.3 394.4 106 407.2 105.3C420 104.6 433.7 99.5002 439.5 97.1002C439.9 96.9002 84.0002 96.9002 84.7002 97.1002Z" fill="#223E71"/>
<path d="M440.6 96.6001C440.6 96.6001 138.4 96.7001 82.5996 96.6001L86.2996 97.6001C147.1 97.7001 410.9 97.6001 438.3 97.6001L440.6 96.6001Z" fill="#FDC13C"/>
<path d="M261 82.8001C257.448 83.0045 253.929 82.0192 251 80.0001C246 76.6001 180.2 35.5 176.2 32.9C172.2 30.3 156 31.0001 159.6 37.2001C169.4 46.9001 205.1 76.4001 207 79.2001C213.4 88.8001 213.4 97.6001 213.4 97.6001H262.8C262.8 97.6001 261 87.6001 261 82.8001Z" fill="#839894"/>
<path d="M260.999 82.8002C257.447 83.0047 253.929 82.0194 250.999 80.0002C245.999 76.6002 180.199 35.5002 176.199 32.9002C172.199 30.3002 172.199 32.9002 172.199 32.9002C172.199 32.9002 216.199 59.9002 226.199 66.4002C236.199 72.9002 254.199 86.5002 260.099 84.9002C261.199 84.6002 260.999 83.7002 260.999 82.8002Z" fill="#6E807D"/>
<path d="M294.199 81.2998C296.299 81.2998 298.899 83.8998 298.899 85.6998V102.9C298.899 104.7 296.299 107.2 294.199 107.2V81.2998Z" fill="url(#paint3_linear)"/>
<path d="M219.3 70.8001C219.3 70.8001 204.1 68.9001 195.1 68.6001C194.5 71.7001 194 73.9001 195.1 74.4001C196.2 74.9001 213.9 73.3001 219.3 70.8001Z" fill="#6E807D"/>
<path d="M228.5 80.5C228.5 80.5 214.501 78.8 206.301 78.5C205.701 81.4 205.301 83.4 206.301 83.8C207.301 84.2 223.5 82.8 228.5 80.5Z" fill="#6E807D"/>
<path d="M234.5 87.7002C234.5 87.7002 220.6 86.0002 212.4 85.7002C211.8 88.6002 211.4 90.6002 212.4 91.1002C213.4 91.6002 229.6 90.0002 234.5 87.7002Z" fill="#6E807D"/>
<path d="M430.099 79.0999C430.099 79.0999 425.599 79.3999 423.899 80.0999C423.199 78.4999 422.599 76.1999 421.199 75.2999C422.899 75.2999 423.999 74.9999 424.699 75.3999C425.399 75.7999 429.199 77.9999 430.099 79.0999Z" fill="#252827"/>
<path d="M420.5 75.4002C421.781 76.6444 422.653 78.2487 423 80.0002C420.451 79.6832 418.016 78.7571 415.9 77.3002C415.848 76.501 415.848 75.6993 415.9 74.9002C417.2 74.8002 419.5 74.8002 420.5 75.4002Z" fill="#252827"/>
<path d="M62 46.4001C62.6053 48.4239 63.4443 50.3704 64.5 52.2001C67.3 52.8001 71.9 53.1001 71.9 50.7001C70.9365 49.0094 69.451 47.6765 67.6661 46.9013C65.8813 46.1261 63.8932 45.9502 62 46.4001Z" fill="#B2752C"/>
<path d="M57.6 36.5C52.9 36.5 48.6 38.2 44.5 37.4C43.4172 37.2325 42.3899 36.8095 41.5031 36.1661C40.6162 35.5227 39.8953 34.6774 39.4 33.7C39.3 33.5 39.2 33.4 39.2 33.2L36.5 27.5C41.1 30.1 45.1 29.2 51.5 28C57.9 26.8 62.8 30.3 63.9 32.9L66.9 39.7C64.2634 37.5899 60.9768 36.459 57.6 36.5Z" fill="#FDC13C"/>
<path d="M49.5007 39.0999C53.7286 38.317 58.0612 38.2832 62.3008 38.9999C66.2008 39.6999 68.9008 44.0999 68.9008 44.0999L71.9008 50.6999C68.7008 45.9999 56.8007 47.5999 51.7007 47.5999C46.6007 47.5999 44.4008 44.6999 42.8008 41.0999L41.3008 37.8999C43.8407 39.1497 46.7092 39.5695 49.5007 39.0999Z" fill="#FDC13C"/>
<path d="M294 81C296.234 81 299 83.61 299 85.417V102.683C299 104.49 296.234 107 294 107V81Z" fill="url(#paint4_linear)"/>
<path d="M258 82C258 82 263.464 81 267 81C277.5 81 294 81 294 81V107H272.269C268.767 107 265.275 106.617 261.856 105.857L258 105V82Z" fill="#FDC13C"/>
<path d="M249 90.9563C249 89.722 249.57 88.5568 250.544 87.7989L258 82V105L250.781 100.187C249.668 99.4456 249 98.1967 249 96.8593V90.9563Z" fill="#A2A2A2"/>
<path d="M258 101H294V107H271L268.168 106.798C265.395 106.6 262.644 106.161 259.946 105.487L258 105V101Z" fill="#B2752C"/>
<path d="M148.803 5.60563C148.452 4.90484 149.007 4.09159 149.788 4.16253L152.807 4.437C153.268 4.47894 153.731 4.5577 154.18 4.67004C155.03 4.88247 155.796 5.3704 156.343 6.05432L159.5 10L163 15.5L166 20.5L169 24.5L171.382 27.8349C171.46 27.9447 171.55 28.0462 171.649 28.138L177.623 33.6854C178.08 34.1097 178.041 34.8441 177.542 35.2182L176.901 35.6994C176.638 35.8968 176.33 36.0262 176.005 36.0762L170 37L162 38H160.291C158.939 38 157.753 37.0945 157.397 35.7894L156.5 32.5L155.5 25L153.5 17.5L150.5 9L148.803 5.60563Z" fill="#223E71"/>
<path d="M164.1 26.9998C164.306 27.6568 164.574 28.2929 164.9 28.8998C165.8 29.0998 167.3 29.1998 167.3 28.3998C166.979 27.8616 166.498 27.4372 165.924 27.1861C165.35 26.935 164.712 26.8699 164.1 26.9998Z" fill="#B2752C"/>
<path d="M162.7 23.9C161.2 23.9 159.8 24.4 158.5 24.2C158.155 24.1488 157.827 24.0122 157.548 23.8027C157.269 23.5932 157.046 23.3173 156.9 23V22.8L156 21C157.5 21.8 158.8 21.5 160.8 21.2C162.8 20.9 164.5 21.9 164.8 22.7C165.1 23.5 165.4 23.9 165.8 24.9C164.928 24.1912 163.822 23.8345 162.7 23.9Z" fill="#FDC13C"/>
<path d="M160.1 24.6998C161.459 24.5 162.841 24.5 164.2 24.6998C164.639 24.813 165.051 25.0129 165.412 25.2876C165.772 25.5624 166.074 25.9066 166.3 26.2998C166.592 27.0186 166.926 27.7198 167.3 28.3998C166.3 26.8998 162.5 27.3998 160.8 27.3998C160.181 27.409 159.575 27.2198 159.071 26.86C158.568 26.5001 158.192 25.9884 158 25.3998C157.814 25.042 157.648 24.6748 157.5 24.2998C158.299 24.7151 159.213 24.8557 160.1 24.6998Z" fill="#FDC13C"/>
</g>
<defs>
<linearGradient id="paint0_linear" x1="235.405" y1="64.966" x2="235.261" y2="106.226" gradientUnits="userSpaceOnUse">
<stop stop-color="#E3E7F0"/>
<stop offset="0.26" stop-color="white"/>
<stop offset="0.5" stop-color="#DDE1EA"/>
<stop offset="1" stop-color="#D7DBE6"/>
</linearGradient>
<linearGradient id="paint1_linear" x1="3697.36" y1="9348.56" x2="3697.36" y2="10115" gradientUnits="userSpaceOnUse">
<stop stop-color="#DBDBDB"/>
<stop offset="1"/>
</linearGradient>
<linearGradient id="paint2_linear" x1="275.5" y1="98" x2="275.5" y2="120" gradientUnits="userSpaceOnUse">
<stop/>
<stop offset="1" stop-color="white" stop-opacity="0"/>
</linearGradient>
<linearGradient id="paint3_linear" x1="4296.68" y1="10971.7" x2="4296.68" y2="11874.1" gradientUnits="userSpaceOnUse">
<stop stop-color="#DBDBDB"/>
<stop offset="1"/>
</linearGradient>
<linearGradient id="paint4_linear" x1="4551.95" y1="11013.5" x2="4551.95" y2="11919.3" gradientUnits="userSpaceOnUse">
<stop stop-color="#DBDBDB"/>
<stop offset="1"/>
</linearGradient>
<clipPath id="clip0">
<rect width="447.7" height="121.9" fill="white"/>
</clipPath>
</defs>
</svg>
